<svg xmlns="http://www.w3.org/2000/svg" viewBox="0 0 192 192" width="192" height="192">
  <defs>
    <linearGradient id="bg" x1="32" y1="32" x2="160" y2="160" gradientUnits="userSpaceOnUse">
      <stop offset="0" stop-color="#67e8f9" />
      <stop offset="0.45" stop-color="#0ea5e9" />
      <stop offset="1" stop-color="#0b5bd3" />
    </linearGradient>
    <linearGradient id="accent" x1="50" y1="18" x2="170" y2="178" gradientUnits="userSpaceOnUse">
      <stop offset="0" stop-color="#fbbf24" />
      <stop offset="1" stop-color="#fb7185" />
    </linearGradient>
  </defs>

  <rect width="192" height="192" rx="40" fill="url(#bg)"/>
  <circle cx="70" cy="62" r="78" fill="#ffffff" opacity="0.12"/>

  <path d="M48 78 C 68 64, 90 56, 116 60 C 136 63, 150 80, 154 96"
        fill="none" stroke="url(#accent)" stroke-width="6" stroke-linecap="round" opacity="0.95"/>
  <path d="M48 78 C 68 64, 90 56, 116 60 C 136 63, 150 80, 154 96"
        fill="none" stroke="#ffffff" stroke-width="2" stroke-linecap="round" opacity="0.25"/>

  <!-- airplane -->
  <g transform="translate(111 46)">
    <path d="M25 10 L 16 15 L 20 22 L 8 20 L 3 26 L 6 0 L 8 11 L 20 11 L 16 18 Z"
          fill="#ffffff" opacity="0.92"/>
    <path d="M25 10 L 16 15 L 20 22 L 8 20 L 3 26 L 6 0 L 8 11 L 20 11 L 16 18 Z"
          fill="url(#accent)" opacity="0.65"/>
  </g>

  <!-- open book -->
  <g transform="translate(0 4)">
    <rect x="26" y="82" width="140" height="104" rx="14" fill="#0b1b35" opacity="0.15"/>

    <path d="M26 88 C 44 78, 72 76, 92 84
             L 92 182
             C 70 173, 44 175, 26 186 Z"
          fill="#ffffff" opacity="0.92"/>
    <path d="M34 98 C 52 91, 72 90, 86 94"
          fill="none" stroke="#0ea5e9" stroke-width="4" stroke-linecap="round" opacity="0.35"/>

    <path d="M90 84 C 112 76, 138 80, 150 88
             L 150 186
             C 134 176, 112 176, 90 182 Z"
          fill="#ffffff" opacity="0.92"/>
    <rect x="90" y="84" width="4" height="104" rx="2" fill="#0b1b35" opacity="0.18"/>

    <path d="M26 88 C 44 78, 72 76, 92 84"
          fill="none" stroke="#000" stroke-opacity="0.08" stroke-width="8" stroke-linecap="round"/>
  </g>

  <g opacity="0.9">
    <circle cx="30" cy="44" r="4" fill="#fbbf24"/>
    <circle cx="43" cy="39" r="2" fill="#fef3c7" opacity="0.9"/>
    <circle cx="160" cy="52" r="4" fill="#fb7185" opacity="0.85"/>
  </g>
</svg>

